<svg id="ecq7vfo5amq1" xmlns="http://www.w3.org/2000/svg" xmlns:xlink="http://www.w3.org/1999/xlink" viewBox="0 0 1000 1000" shape-rendering="geometricPrecision" text-rendering="geometricPrecision"><style><![CDATA[#ecq7vfo5amq6_to {animation: ecq7vfo5amq6_to__to 300ms linear 1 normal forwards}@keyframes ecq7vfo5amq6_to__to { 0% {transform: translate(278.850006px,447.109985px)} 100% {transform: translate(599.115053px,446.559985px)} }#ecq7vfo5amq9_to {animation: ecq7vfo5amq9_to__to 300ms linear 1 normal forwards}@keyframes ecq7vfo5amq9_to__to { 0% {transform: translate(597.049988px,190.670006px)} 100% {transform: translate(277.849988px,191.230006px)} }]]></style><g id="ecq7vfo5amq2"><path id="ecq7vfo5amq3" d="M645.480000,300.860000C658.600000,300.860000,665.450000,310.750000,665.450000,321.140000C665.450000,331.530000,658.600000,341.420000,645.480000,341.420000L230.690000,341.420000C217.570000,341.420000,210.720000,331.530000,210.720000,321.140000C210.720000,310.750000,217.570000,300.860000,230.690000,300.860000L645.480000,300.860000Z" fill="rgb(0,0,0)" stroke="none" stroke-width="1"/></g><g id="ecq7vfo5amq4"><path id="ecq7vfo5amq5" d="M230.470000,466.840000C217.350000,466.840000,210.510000,456.950000,210.510000,446.560000C210.510000,436.170000,217.350000,426.280000,230.470000,426.280000L645.150000,426.280000C658.270000,426.280000,665.110000,436.170000,665.110000,446.560000C665.110000,456.950000,658.270000,466.840000,645.150000,466.840000L230.470000,466.840000Z" fill="rgb(0,0,0)" stroke="none" stroke-width="1"/></g><g id="ecq7vfo5amq6_to" transform="translate(278.850006,447.109985)"><circle id="ecq7vfo5amq6" r="48.060000" transform="translate(-0.000006,0.000015)" fill="rgb(255,255,255)" stroke="rgb(0,0,0)" stroke-width="39" stroke-miterlimit="10"/></g><g id="ecq7vfo5amq7"><path id="ecq7vfo5amq8" d="M645.160000,170.950000C658.270000,170.950000,665.110000,180.840000,665.110000,191.230000C665.110000,201.620000,658.270000,211.510000,645.160000,211.510000L230.730000,211.510000C217.620000,211.510000,210.780000,201.620000,210.780000,191.230000C210.780000,180.840000,217.620000,170.950000,230.730000,170.950000L645.160000,170.950000Z" fill="rgb(0,0,0)" stroke="none" stroke-width="1"/></g><g id="ecq7vfo5amq9_to" transform="translate(597.049988,190.670006)"><circle id="ecq7vfo5amq9" r="48.060000" transform="translate(0.000012,-0.000006)" fill="rgb(255,255,255)" stroke="rgb(0,0,0)" stroke-width="39" stroke-miterlimit="10"/></g></svg>