<svg id="edxx3w4zt0a1" xmlns="http://www.w3.org/2000/svg" xmlns:xlink="http://www.w3.org/1999/xlink" viewBox="0 0 1000 1000" shape-rendering="geometricPrecision" text-rendering="geometricPrecision"><style><![CDATA[#edxx3w4zt0a3 {animation: edxx3w4zt0a3_c_o 500ms linear 1 normal forwards}@keyframes edxx3w4zt0a3_c_o { 0% {opacity: 1} 6% {opacity: 0} 100% {opacity: 0} }#edxx3w4zt0a5_to {animation: edxx3w4zt0a5_to__to 500ms linear 1 normal forwards}@keyframes edxx3w4zt0a5_to__to { 0% {transform: translate(210.780000px,446.560000px)} 68% {transform: translate(197.835518px,477.877084px)} 100% {transform: translate(197.835518px,477.877084px)} }#edxx3w4zt0a5_tr {animation: edxx3w4zt0a5_tr__tr 500ms linear 1 normal forwards}@keyframes edxx3w4zt0a5_tr__tr { 0% {transform: rotate(0deg)} 68% {transform: rotate(-44.824500deg)} 100% {transform: rotate(-44.824500deg)} }#edxx3w4zt0a7 {animation: edxx3w4zt0a7_c_o 500ms linear 1 normal forwards}@keyframes edxx3w4zt0a7_c_o { 0% {opacity: 1} 6% {opacity: 0} 100% {opacity: 0} }#edxx3w4zt0a9_to {animation: edxx3w4zt0a9_to__to 500ms linear 1 normal forwards}@keyframes edxx3w4zt0a9_to__to { 0% {transform: translate(210.720000px,190.669994px)} 68% {transform: translate(195.851834px,155.202249px)} 100% {transform: translate(195.851834px,155.202249px)} }#edxx3w4zt0a9_tr {animation: edxx3w4zt0a9_tr__tr 500ms linear 1 normal forwards}@keyframes edxx3w4zt0a9_tr__tr { 0% {transform: rotate(0deg)} 68% {transform: rotate(44.598673deg)} 100% {transform: rotate(44.598673deg)} }#edxx3w4zt0a11 {animation: edxx3w4zt0a11_c_o 500ms linear 1 normal forwards}@keyframes edxx3w4zt0a11_c_o { 0% {opacity: 1} 6% {opacity: 0} 100% {opacity: 0} }]]></style><g id="edxx3w4zt0a2"><path id="edxx3w4zt0a3" d="M645.480000,300.860000C658.600000,300.860000,665.450000,310.750000,665.450000,321.140000C665.450000,331.530000,658.600000,341.420000,645.480000,341.420000L230.690000,341.420000C217.570000,341.420000,210.720000,331.530000,210.720000,321.140000C210.720000,310.750000,217.570000,300.860000,230.690000,300.860000L645.480000,300.860000Z" fill="rgb(0,0,0)" stroke="none" stroke-width="1"/></g><g id="edxx3w4zt0a4"><g id="edxx3w4zt0a5_to" transform="translate(210.780000,446.560000)"><g id="edxx3w4zt0a5_tr" transform="rotate(0)"><path id="edxx3w4zt0a5" d="M230.470000,466.840000C217.350000,466.840000,210.510000,456.950000,210.510000,446.560000C210.510000,436.170000,217.350000,426.280000,230.470000,426.280000L645.150000,426.280000C658.270000,426.280000,665.110000,436.170000,665.110000,446.560000C665.110000,456.950000,658.270000,466.840000,645.150000,466.840000L230.470000,466.840000Z" transform="translate(-210.780000,-446.560000)" fill="rgb(0,0,0)" stroke="none" stroke-width="1"/></g></g></g><g id="edxx3w4zt0a6" transform="matrix(1 0 0 1 278.85000000000002 447.11000000000001)"><circle id="edxx3w4zt0a7" r="48.060000" transform="matrix(1 0 0 1 -0.00000600000000 0.00001500000000)" fill="rgb(255,255,255)" stroke="rgb(0,0,0)" stroke-width="39" stroke-miterlimit="10"/></g><g id="edxx3w4zt0a8"><g id="edxx3w4zt0a9_to" transform="translate(210.720000,190.669994)"><g id="edxx3w4zt0a9_tr" transform="rotate(0)"><path id="edxx3w4zt0a9" d="M645.160000,170.950000C658.270000,170.950000,665.110000,180.840000,665.110000,191.230000C665.110000,201.620000,658.270000,211.510000,645.160000,211.510000L230.730000,211.510000C217.620000,211.510000,210.780000,201.620000,210.780000,191.230000C210.780000,180.840000,217.620000,170.950000,230.730000,170.950000L645.160000,170.950000Z" transform="translate(-210.911503,-191.230000)" fill="rgb(0,0,0)" stroke="none" stroke-width="1"/></g></g></g><g id="edxx3w4zt0a10" transform="matrix(1 0 0 1 597.04999999999995 190.66999999999999)"><circle id="edxx3w4zt0a11" r="48.060000" transform="matrix(1 0 0 1 0.00001200000000 -0.00000600000000)" fill="rgb(255,255,255)" stroke="rgb(0,0,0)" stroke-width="39" stroke-miterlimit="10"/></g></svg>